<mxfile host="app.diagrams.net" modified="2023-03-01T00:22:23.384Z" agent="5.0 (Windows NT 10.0; Win64; x64) AppleWebKit/537.36 (KHTML, like Gecko) Chrome/110.0.0.0 Safari/537.36 Edg/110.0.1587.57" etag="iXPryvT2IHALyAFwQHjx" version="20.8.23" type="github">
  <diagram name="Página-1" id="c2unNbd_LQhfcD2Dwa1u">
    <mxGraphModel dx="1244" dy="573" grid="1" gridSize="10" guides="1" tooltips="1" connect="1" arrows="1" fold="1" page="1" pageScale="1" pageWidth="827" pageHeight="1169" math="0" shadow="0">
      <root>
        <mxCell id="0" />
        <mxCell id="1" parent="0" />
        <mxCell id="I6MgSHRJSRU7wfE-z3dW-5" style="edgeStyle=orthogonalEdgeStyle;rounded=0;orthogonalLoop=1;jettySize=auto;html=1;exitX=0.5;exitY=1;exitDx=0;exitDy=0;exitPerimeter=0;entryX=0.5;entryY=0;entryDx=0;entryDy=0;" edge="1" parent="1" source="I6MgSHRJSRU7wfE-z3dW-1" target="I6MgSHRJSRU7wfE-z3dW-2">
          <mxGeometry relative="1" as="geometry" />
        </mxCell>
        <mxCell id="I6MgSHRJSRU7wfE-z3dW-1" value="início" style="strokeWidth=2;html=1;shape=mxgraph.flowchart.start_2;whiteSpace=wrap;" vertex="1" parent="1">
          <mxGeometry x="160" y="50" width="100" height="100" as="geometry" />
        </mxCell>
        <mxCell id="I6MgSHRJSRU7wfE-z3dW-6" style="edgeStyle=orthogonalEdgeStyle;rounded=0;orthogonalLoop=1;jettySize=auto;html=1;exitX=1;exitY=0.5;exitDx=0;exitDy=0;" edge="1" parent="1" source="I6MgSHRJSRU7wfE-z3dW-2" target="I6MgSHRJSRU7wfE-z3dW-3">
          <mxGeometry relative="1" as="geometry" />
        </mxCell>
        <mxCell id="I6MgSHRJSRU7wfE-z3dW-2" value="n1,n2,somar:real" style="rounded=1;whiteSpace=wrap;html=1;absoluteArcSize=1;arcSize=14;strokeWidth=2;" vertex="1" parent="1">
          <mxGeometry x="160" y="190" width="100" height="100" as="geometry" />
        </mxCell>
        <mxCell id="I6MgSHRJSRU7wfE-z3dW-7" style="edgeStyle=orthogonalEdgeStyle;rounded=0;orthogonalLoop=1;jettySize=auto;html=1;exitX=1;exitY=0.5;exitDx=0;exitDy=0;" edge="1" parent="1" source="I6MgSHRJSRU7wfE-z3dW-3" target="I6MgSHRJSRU7wfE-z3dW-4">
          <mxGeometry relative="1" as="geometry" />
        </mxCell>
        <mxCell id="I6MgSHRJSRU7wfE-z3dW-3" value="somar&lt;- n1+n2" style="rounded=1;whiteSpace=wrap;html=1;absoluteArcSize=1;arcSize=14;strokeWidth=2;" vertex="1" parent="1">
          <mxGeometry x="320" y="190" width="100" height="100" as="geometry" />
        </mxCell>
        <mxCell id="I6MgSHRJSRU7wfE-z3dW-4" value="FimAlgoritmo" style="strokeWidth=2;html=1;shape=mxgraph.flowchart.start_1;whiteSpace=wrap;" vertex="1" parent="1">
          <mxGeometry x="480" y="210" width="100" height="60" as="geometry" />
        </mxCell>
      </root>
    </mxGraphModel>
  </diagram>
</mxfile>
